<?xml version="1.0" standalone="no"?>
<!DOCTYPE svg PUBLIC "-//W3C//DTD SVG 20010904//EN"
 "http://www.w3.org/TR/2001/REC-SVG-20010904/DTD/svg10.dtd">
<svg version="1.0" xmlns="http://www.w3.org/2000/svg"
 width="512.000000pt" height="512.000000pt" viewBox="0 0 512.000000 512.000000"
 preserveAspectRatio="xMidYMid meet">
<metadata>
Created by potrace 1.16, written by Peter Selinger 2001-2019
</metadata>
<g transform="translate(0.000000,512.000000) scale(0.100000,-0.100000)"
fill="#f2e6d9" stroke="none">
<path d="M376 5108 c31 -51 343 -494 442 -628 327 -442 363 -499 436 -683 87
-220 286 -863 286 -925 1 -35 2 -36 15 -18 23 30 18 104 -10 164 -14 30 -25
56 -25 59 0 3 14 -7 31 -21 55 -47 133 -27 203 53 26 29 15 27 -42 -9 -55 -33
-111 -39 -136 -15 -9 9 -20 35 -26 58 -26 100 -114 385 -165 537 -100 295
-151 383 -416 727 -143 185 -293 392 -444 611 l-70 101 -43 1 c-32 0 -41 -3
-36 -12z"/>
<path d="M1455 5098 c4 -13 36 -99 72 -193 36 -93 78 -208 95 -255 44 -123 67
-164 148 -262 161 -198 222 -328 327 -703 35 -126 72 -255 82 -285 10 -30 20
-61 22 -69 2 -9 -32 -39 -95 -82 -106 -73 -247 -181 -243 -186 2 -1 91 45 198
103 182 99 197 105 242 101 51 -4 151 -62 143 -83 -2 -6 -36 -57 -76 -113 -89
-127 -101 -156 -135 -301 -38 -167 -39 -180 -16 -217 56 -89 197 -88 315 2 19
14 51 50 71 80 l37 54 97 -76 c53 -42 102 -82 109 -88 12 -10 9 -21 -15 -63
l-29 -51 -97 53 c-53 30 -98 51 -101 48 -4 -3 -6 -15 -6 -28 0 -19 32 -41 186
-130 103 -59 199 -118 215 -132 45 -37 37 -91 -18 -120 -31 -17 -65 -15 -120
6 -65 25 -290 168 -309 197 -15 23 -16 23 -54 7 -22 -10 -40 -20 -40 -24 0 -3
78 -56 173 -118 207 -133 227 -150 227 -185 0 -35 -50 -85 -84 -85 -47 0 -125
37 -286 137 -134 82 -156 99 -137 105 17 5 15 6 -13 7 -19 1 -51 5 -69 11 -42
12 -48 7 -29 -23 15 -22 13 -25 -62 -103 l-77 -80 -32 37 c-37 44 -86 62 -133
48 -18 -5 -61 -37 -95 -71 l-63 -62 -35 34 c-89 86 -127 183 -176 448 -20 109
-39 182 -54 209 -13 24 -20 45 -17 47 4 2 48 20 97 41 200 81 482 245 523 303
62 86 -14 61 -217 -71 -182 -119 -269 -161 -421 -201 l-89 -24 -147 166 c-81
92 -226 254 -323 361 -97 107 -206 231 -242 276 -61 76 -177 254 -241 370 -15
28 -28 48 -28 45 0 -3 29 -74 63 -157 112 -266 132 -294 696 -948 57 -66 116
-145 132 -177 16 -31 49 -76 73 -100 54 -52 60 -75 82 -277 12 -122 26 -189
64 -322 59 -203 69 -226 128 -281 26 -24 71 -77 100 -119 60 -86 95 -110 232
-154 59 -19 100 -40 134 -68 66 -55 105 -56 152 -4 27 29 34 45 34 77 0 53 23
53 83 1 56 -48 87 -56 132 -36 55 27 76 90 50 157 -5 12 -1 20 11 24 37 13 74
58 80 95 6 34 9 37 48 42 30 4 49 15 73 41 28 30 33 43 33 86 0 39 4 52 18 57
62 24 102 79 102 143 0 38 2 40 30 40 40 0 105 34 125 64 9 13 19 43 23 67 7
41 10 45 56 62 94 35 136 82 139 157 2 33 12 46 123 148 151 138 205 210 263
353 18 45 21 46 78 58 120 23 213 116 213 210 0 45 2 48 72 106 99 82 383 395
603 665 384 470 465 575 465 604 0 31 0 31 -18 10 -57 -71 -553 -658 -636
-754 -174 -199 -368 -401 -448 -465 l-77 -61 -88 86 c-103 100 -507 428 -568
461 -51 27 -85 21 -116 -22 -12 -17 -25 -54 -29 -82 l-8 -52 -1 51 c-1 59 22
95 98 156 60 46 172 108 198 108 29 0 102 -39 155 -84 26 -22 57 -41 68 -43
l21 -3 -20 28 c-22 32 -88 94 -116 109 -17 10 -15 15 19 71 20 33 56 102 80
153 24 52 103 216 176 364 154 315 249 511 261 543 7 19 5 22 -16 22 -23 0
-46 -43 -280 -509 -140 -280 -268 -525 -285 -545 -22 -24 -50 -41 -95 -56
-113 -38 -249 -138 -287 -213 -16 -33 -19 -53 -15 -106 3 -36 9 -78 12 -93 7
-26 5 -27 -80 -53 -117 -35 -398 -140 -433 -161 -16 -9 -43 -37 -61 -63 l-32
-47 -104 53 c-121 62 -132 76 -169 208 -181 650 -193 677 -406 914 -119 133
-143 176 -253 471 -63 170 -76 195 -96 198 -20 3 -22 1 -16 -20z m1841 -1519
c123 -78 275 -214 328 -294 39 -60 35 -70 -25 -70 l-51 1 -31 59 c-43 80 -106
145 -140 145 -35 0 -34 -4 7 -41 38 -33 87 -104 110 -161 l16 -37 -54 -36
c-65 -43 -136 -117 -201 -210 -27 -38 -72 -102 -100 -141 -30 -41 -58 -96 -69
-132 l-19 -60 -79 -7 c-43 -4 -81 -6 -83 -3 -2 2 15 40 37 85 22 44 39 86 36
93 -2 6 -32 -25 -66 -69 -35 -45 -67 -81 -71 -81 -16 0 -171 132 -171 144 0
28 63 137 91 157 20 14 62 25 132 35 140 20 158 29 74 37 -37 3 -73 9 -79 13
-14 9 21 28 102 55 159 53 287 146 309 225 13 48 14 84 1 104 -8 12 -10 11
-10 -6 0 -36 -28 -104 -59 -142 -52 -66 -183 -126 -338 -155 -31 -6 -33 -4
-34 21 -2 27 -2 27 -6 2 -2 -14 -10 -29 -17 -35 -7 -5 -19 -21 -26 -35 -13
-25 -14 -25 -25 21 -7 26 -15 52 -19 58 -13 21 -25 11 -20 -17 9 -43 -12 -103
-57 -166 -38 -53 -42 -56 -58 -42 -16 15 -17 14 -13 -13 4 -27 -25 -125 -54
-182 -53 -105 -218 -174 -285 -120 -20 16 -22 23 -13 47 10 29 11 29 77 26 76
-4 92 4 114 56 24 57 11 72 -60 72 -86 0 -89 4 -73 72 7 32 21 70 31 85 52 80
166 226 223 286 65 67 68 81 11 51 -29 -14 -30 -14 -21 3 27 50 72 75 244 139
162 59 222 74 304 75 57 0 65 2 47 11 -13 6 -23 15 -23 19 0 17 34 26 66 19
40 -9 42 -5 12 20 -19 15 -20 20 -9 34 19 22 30 20 87 -15z m644 -441 c0 -71
-102 -148 -196 -148 -34 0 -34 1 -34 45 l0 45 43 0 c50 1 110 21 138 46 15 13
18 26 14 48 l-6 31 21 -24 c11 -13 20 -32 20 -43z m-317 -48 c5 -19 7 -67 5
-105 -9 -133 -102 -272 -250 -370 -34 -22 -58 -45 -58 -55 0 -24 -38 -70 -57
-70 -9 0 -43 17 -75 38 -51 32 -58 40 -52 62 8 35 10 35 45 6 17 -15 44 -33
60 -42 47 -24 36 5 -22 56 l-52 46 16 29 c38 75 93 88 156 37 55 -44 60 -40
16 14 -20 25 -36 46 -34 48 2 1 38 27 79 58 68 50 162 159 148 173 -2 3 -42
-27 -89 -66 -82 -70 -162 -119 -175 -107 -13 13 54 115 116 178 71 73 139 112
184 108 25 -3 31 -9 39 -38z m-1183 -358 c0 -60 -48 -81 -133 -59 -26 7 -28
11 -22 40 11 47 10 47 86 47 69 0 69 0 69 -28z m633 -204 c41 -21 137 -99 153
-124 32 -48 -19 -110 -82 -102 l-29 4 28 14 c34 16 30 32 -9 41 -38 7 -93 36
-121 62 -27 24 -30 72 -6 99 19 21 36 23 66 6z m-115 -141 c9 -11 38 -37 64
-57 26 -21 44 -40 41 -44 -7 -6 -149 68 -169 88 -9 8 -8 23 3 61 l16 50 13
-39 c8 -22 22 -48 32 -59z m-1390 -337 c18 -43 18 -47 2 -94 l-17 -49 -16 74
c-26 121 -37 190 -36 233 0 37 2 34 24 -39 13 -44 32 -100 43 -125z m1087
-193 c68 -37 81 -48 83 -72 4 -36 -19 -55 -65 -55 -42 0 -278 112 -292 139 -6
10 -31 32 -56 49 -38 25 -43 31 -30 42 27 22 16 32 -11 11 -20 -15 -41 -21
-80 -21 -30 0 -54 3 -54 7 0 4 30 37 66 74 l66 67 147 -99 c80 -54 182 -118
226 -142z m-647 103 c39 -24 59 -62 46 -89 -5 -10 -33 -40 -63 -65 -41 -35
-63 -46 -88 -46 -40 0 -83 37 -83 71 0 25 117 149 141 149 8 0 29 -9 47 -20z
m-338 -107 c18 -31 19 -40 9 -65 -6 -15 -15 -28 -19 -28 -21 0 -41 106 -23
123 9 10 9 10 33 -30z m641 -10 c68 -64 73 -97 21 -156 -15 -16 -17 -16 -39 5
-28 26 -29 40 -3 63 31 28 24 38 -10 14 -22 -17 -33 -19 -42 -11 -7 6 -31 12
-53 14 -43 3 -52 18 -41 64 7 27 53 53 94 54 14 0 43 -18 73 -47z m-281 -83
c-6 -11 -20 -20 -30 -20 -27 0 -25 7 8 24 35 19 35 20 22 -4z m-194 -38 c61
-33 69 -41 72 -69 3 -26 9 -33 33 -38 30 -7 30 -7 12 -28 -18 -20 -17 -20 2
-12 66 26 122 6 208 -73 72 -67 94 -137 53 -164 -17 -12 -22 -10 -65 26 -22
19 -73 46 -113 62 -133 50 -162 68 -230 152 -94 112 -94 112 -74 150 9 18 20
32 25 32 4 0 39 -17 77 -38z m668 2 c28 -14 59 -33 69 -41 23 -22 22 -70 -2
-83 -26 -13 -105 3 -154 33 l-36 22 31 48 c16 26 33 47 35 47 3 0 28 -12 57
-26z m-290 -39 c14 -13 26 -31 26 -40 0 -8 0 -18 0 -22 0 -4 -14 -8 -30 -9
-17 -1 -40 -10 -50 -19 -16 -15 -22 -16 -35 -5 -43 36 -42 80 3 105 38 20 55
18 86 -10z m36 -96 c0 -42 -40 -60 -81 -38 -20 10 -20 11 -3 30 18 20 84 27
84 8z m173 -35 c77 -26 118 -97 79 -137 l-21 -20 -42 37 c-37 34 -63 49 -121
69 -15 5 -16 11 -7 37 13 36 39 39 112 14z"/>
<path d="M2562 1795 c19 -20 31 -26 45 -20 17 8 17 8 -2 13 -10 2 -31 11 -45
20 l-25 15 27 -28z"/>
<path d="M2440 1661 c14 -27 27 -34 36 -20 4 7 -1 18 -11 26 -27 19 -37 16
-25 -6z"/>
<path d="M4325 4873 c-291 -522 -414 -726 -502 -830 -25 -29 -40 -53 -35 -53
23 0 156 138 206 213 70 105 506 890 506 911 0 3 -8 6 -19 6 -13 0 -53 -62
-156 -247z"/>
<path d="M4862 4998 c-82 -114 -186 -261 -471 -661 -160 -225 -343 -462 -414
-534 -128 -131 -11 -65 137 77 110 105 190 205 381 475 82 116 181 255 220
310 209 293 315 444 315 449 0 3 -18 6 -39 6 -39 0 -41 -2 -129 -122z"/>
<path d="M97 4692 c-11 -52 20 -160 74 -261 91 -172 166 -271 539 -721 89
-107 194 -240 233 -295 39 -55 75 -104 80 -110 6 -5 -20 49 -57 120 -94 181
-261 427 -481 710 -241 309 -312 414 -360 531 -21 53 -23 54 -28 26z"/>
<path d="M4572 4234 c-266 -265 -356 -368 -241 -274 66 54 313 300 433 433
168 184 77 109 -192 -159z"/>
<path d="M1721 4334 c-2 -27 71 -214 84 -214 2 0 -3 24 -12 53 -17 58 -71 178
-72 161z"/>
<path d="M1454 3603 c3 -10 12 -47 21 -83 24 -97 87 -292 92 -286 3 3 0 29 -7
58 -16 70 -100 328 -106 328 -3 0 -3 -8 0 -17z"/>
<path d="M2114 2407 c-18 -15 -42 -48 -54 -74 -48 -103 -92 -250 -62 -208 90
125 157 256 150 293 -2 12 -10 9 -34 -11z"/>
<path d="M2890 2150 c0 -5 11 -17 26 -26 20 -13 28 -14 37 -5 9 10 8 16 -7 27
-23 16 -56 19 -56 4z"/>
<path d="M2699 1976 c42 -43 87 -64 104 -47 8 8 8 14 0 22 -10 10 -120 59
-132 59 -3 0 10 -15 28 -34z"/>
</g>
</svg>