<?xml version="1.0" standalone="no"?>
<!DOCTYPE svg PUBLIC "-//W3C//DTD SVG 20010904//EN"
 "http://www.w3.org/TR/2001/REC-SVG-20010904/DTD/svg10.dtd">
<svg version="1.0" xmlns="http://www.w3.org/2000/svg"
 width="512.000000pt" height="512.000000pt" viewBox="0 0 512.000000 512.000000"
 preserveAspectRatio="xMidYMid meet">
<metadata>
Created by potrace 1.16, written by Peter Selinger 2001-2019
</metadata>
<g transform="translate(0.000000,512.000000) scale(0.100000,-0.100000)"
fill="#1A2849" stroke="none">
<path d="M2439 3431 c-16 -16 -29 -38 -29 -49 0 -10 -3 -39 -6 -63 -5 -36 -2
-48 15 -68 12 -13 21 -31 21 -40 0 -13 12 -16 72 -15 64 1 72 3 80 23 4 12 15
29 24 38 10 11 14 27 11 47 -2 17 0 41 6 53 21 47 -49 103 -128 103 -27 0 -44
-8 -66 -29z"/>
<path d="M2268 3160 c-8 -13 -19 -18 -34 -14 -58 15 -114 -54 -128 -158 -6
-42 -10 -48 -41 -58 -18 -6 -39 -19 -47 -28 -11 -15 -11 -15 2 -5 17 13 70 35
70 29 0 -7 -75 -50 -82 -48 -13 3 -8 -72 5 -90 12 -15 14 -15 25 3 7 10 34 30
61 43 55 28 84 61 101 112 7 20 14 33 17 31 7 -8 -27 -80 -50 -105 -12 -13
-42 -34 -67 -47 -25 -13 -54 -36 -66 -51 -22 -31 -49 -102 -41 -110 2 -3 7 6
11 20 8 32 35 40 125 38 58 -1 84 3 116 19 l42 21 40 -20 c44 -23 53 -40 78
-142 26 -106 56 -197 68 -213 7 -9 37 -30 67 -47 l55 -32 -26 29 c-34 36 -46
61 -99 203 -42 111 -78 181 -100 195 -7 4 -8 30 -4 73 5 50 12 73 30 92 62 67
57 179 -11 247 -40 40 -97 46 -117 13z m62 -62 c27 -44 26 -109 0 -133 -13
-11 -20 -31 -20 -53 0 -25 -8 -42 -34 -68 -19 -19 -40 -34 -47 -34 -8 0 0 9
18 20 38 23 53 48 53 88 0 16 9 37 20 47 27 24 26 87 -1 131 -11 19 -18 34
-15 34 4 0 15 -15 26 -32z"/>
<path d="M2448 3172 c-10 -4 13 -7 51 -7 38 0 64 3 57 7 -14 9 -85 9 -108 0z"/>
<path d="M2643 3088 c10 -7 40 -26 65 -43 29 -18 54 -45 66 -68 18 -37 120
-516 112 -525 -8 -7 -85 141 -128 246 -23 56 -45 102 -49 102 -11 0 -29 -94
-41 -217 -8 -84 -7 -140 2 -227 l12 -115 30 -6 c16 -4 32 -4 35 -1 4 3 1 48
-5 100 -7 52 -12 146 -11 208 l0 113 34 -109 c37 -121 100 -257 143 -307 29
-35 32 -69 17 -176 -5 -37 -4 -53 4 -53 6 0 11 7 11 15 0 19 16 20 23 1 3 -8
-1 -20 -9 -26 -8 -7 -14 -19 -14 -26 0 -22 29 -16 57 12 24 24 25 30 19 87 -4
34 -11 103 -16 152 -12 120 -51 301 -111 520 -70 252 -74 260 -179 313 -47 23
-77 37 -67 30z"/>
<path d="M2327 2533 c-15 -60 -29 -123 -32 -140 -6 -28 -13 -34 -46 -43 -34
-9 -38 -14 -29 -26 7 -8 25 -14 40 -14 26 0 29 -5 39 -49 6 -27 27 -89 47
-138 50 -119 56 -204 23 -340 -13 -54 -22 -111 -21 -128 2 -20 0 -26 -6 -17
-6 9 -13 -6 -22 -44 -21 -88 -35 -99 -121 -99 l-73 0 -19 60 c-10 33 -27 103
-38 155 -11 54 -17 73 -14 45 2 -27 7 -97 11 -154 6 -86 11 -108 28 -125 18
-18 21 -34 22 -116 1 -66 11 -142 34 -250 22 -100 32 -174 30 -210 -4 -70 -3
-86 7 -135 6 -31 14 -41 31 -43 21 -3 22 0 22 55 -1 35 -6 66 -15 77 -8 11
-15 29 -15 40 0 14 7 6 20 -23 11 -24 20 -65 20 -92 0 -35 5 -51 18 -58 12 -7
-118 -11 -423 -12 l-440 -2 470 -9 c259 -5 801 -5 1205 -1 l735 7 -649 8
c-357 4 -652 10 -655 13 -3 3 -5 33 -6 66 0 47 -3 60 -17 65 -19 6 -21 15 -8
54 8 24 8 24 9 -6 1 -17 7 -37 15 -43 7 -6 16 -27 19 -47 7 -44 23 -64 51 -64
51 0 57 37 23 129 -26 70 -26 72 24 351 16 91 31 190 35 220 3 30 12 96 19
145 12 74 55 494 55 532 0 7 10 13 23 15 17 2 23 11 25 35 3 28 0 33 -25 39
-59 13 -69 17 -118 52 -27 19 -77 48 -111 64 -35 16 -67 35 -72 41 -9 11 -29
72 -67 210 -8 31 -19 57 -24 57 -5 0 -20 -48 -34 -107z m240 -306 c62 -18 116
-36 119 -40 7 -7 -109 23 -188 49 -44 14 -98 56 -98 76 0 4 12 -5 28 -22 21
-23 52 -37 139 -63z m-180 -109 c-3 -8 -6 -5 -6 6 -1 11 2 17 5 13 3 -3 4 -12
1 -19z m10 -50 c-3 -8 -6 -5 -6 6 -1 11 2 17 5 13 3 -3 4 -12 1 -19z m10 -125
c-2 -21 -4 -6 -4 32 0 39 2 55 4 38 2 -18 2 -50 0 -70z m60 -493 c-5 -30 -13
-95 -17 -145 -6 -65 -8 -28 -5 138 3 125 8 233 12 240 12 18 20 -171 10 -233z
m-107 -472 c6 -65 15 -132 21 -150 7 -27 5 -36 -12 -55 -14 -14 -20 -30 -16
-43 4 -17 1 -20 -26 -19 -18 1 -24 3 -14 6 25 6 21 25 -15 84 -32 52 -33 54
-32 168 0 91 6 139 27 222 21 81 27 131 27 210 0 57 4 129 8 159 5 38 9 -25
13 -205 4 -143 12 -313 19 -377z m177 545 c-2 -16 -4 -5 -4 22 0 28 2 40 4 28
2 -13 2 -35 0 -50z m2 -112 c-5 -36 -11 -67 -14 -69 -7 -7 -6 66 2 111 10 65
21 26 12 -42z m-311 -57 c-7 -29 -6 -89 0 -169 11 -124 7 -180 -9 -153 -10 15
-12 274 -3 342 4 26 10 42 14 36 4 -6 3 -32 -2 -56z m289 -56 c-3 -7 -5 -2 -5
12 0 14 2 19 5 13 2 -7 2 -19 0 -25z m-23 -136 c-13 -78 -15 -115 -7 -162 5
-33 7 -57 3 -53 -11 13 -29 111 -34 188 -3 50 -3 58 3 28 8 -45 21 -69 21 -38
0 29 22 147 26 142 3 -2 -3 -50 -12 -105z m-127 -104 c-3 -7 -5 -2 -5 12 0 14
2 19 5 13 2 -7 2 -19 0 -25z m21 -128 c0 -16 -3 -11 -9 15 -4 22 -8 51 -7 65
0 16 3 11 9 -15 4 -22 8 -51 7 -65z"/>
<path d="M2047 2579 c-4 -30 -13 -112 -22 -184 -8 -71 -14 -168 -13 -215 l1
-85 7 70 c4 39 13 113 19 165 6 52 12 113 14 135 2 40 3 39 25 -31 28 -91 28
-98 -8 -205 -16 -50 -32 -109 -35 -132 -4 -25 4 -7 18 43 31 108 43 138 72
176 l23 30 -38 126 c-50 165 -55 175 -63 107z"/>
<path d="M1982 2590 c0 -19 2 -27 5 -17 2 9 2 25 0 35 -3 9 -5 1 -5 -18z"/>
<path d="M1972 2460 c0 -14 2 -19 5 -12 2 6 2 18 0 25 -3 6 -5 1 -5 -13z"/>
<path d="M1965 2105 c6 -184 6 -191 30 -214 13 -14 26 -23 28 -20 2 2 1 31 -4
64 -4 33 -13 112 -19 175 -7 63 -19 130 -26 150 -13 31 -14 14 -9 -155z"/>
<path d="M2091 1341 c-1 -51 27 -196 37 -187 2 3 -1 27 -8 54 -6 27 -15 81
-19 118 l-8 69 -2 -54z"/>
</g>
</svg>